<?xml version="1.0" encoding="UTF-8" standalone="no"?>
<!DOCTYPE svg PUBLIC "-//W3C//DTD SVG 1.1//EN" "http://www.w3.org/Graphics/SVG/1.1/DTD/svg11.dtd">
<svg width="100%" height="100%" viewBox="0 0 3544 3544" version="1.1" xmlns="http://www.w3.org/2000/svg" xmlns:xlink="http://www.w3.org/1999/xlink" xml:space="preserve" xmlns:serif="http://www.serif.com/" style="fill-rule:evenodd;clip-rule:evenodd;stroke-linejoin:round;stroke-miterlimit:2;">
    <g transform="matrix(12.721909,0,0,12.886864,-182.18117,-1126.941065)">
        <path d="M94.711,327.029L95.154,327.008L95.154,327.029L94.711,327.029ZM212.414,327.029L211.972,327.029L211.972,327.008L212.414,327.029ZM42.374,167.577C36.692,149.965 29.831,134.696 22.427,122.879C36.545,134.436 89.886,143.041 153.454,143.041C217.123,143.041 270.534,134.408 284.549,122.823L284.734,122.823C277.316,134.649 270.442,149.939 264.75,167.58C264.658,167.866 264.567,168.152 264.475,168.439L254.223,168.439C250.129,168.753 245.977,169.048 241.769,169.324L241.769,190.469C245.686,190.308 249.45,190.137 253.048,189.956C251.647,195.963 250.46,202.923 249.615,210.431L241.769,210.431L241.769,327.029L212.414,327.029L218.256,210.431L88.87,210.431L94.711,327.029L65.356,327.029L65.356,210.431L57.511,210.431C56.666,202.923 55.479,195.963 54.077,189.956C57.676,190.137 61.44,190.308 65.356,190.469L65.356,169.322C61.161,169.047 57.02,168.752 52.937,168.439L42.651,168.439C42.559,168.151 42.467,167.864 42.374,167.577ZM86.872,170.542L87.908,191.232C107.67,191.773 129.97,192.077 153.563,192.077C177.155,192.077 199.456,191.773 219.217,191.232L220.254,170.544C199.038,171.562 176.676,172.107 153.58,172.107C130.472,172.107 108.098,171.562 86.872,170.542Z" style="fill:rgb(255,168,0);"/>
    </g>
    <g transform="matrix(4.804303,0,0,4.804303,746.246307,1211.517407)">
        <path d="M291.869,303.551C286.285,348.414 272.233,363.957 272.161,364.003C252.57,376.528 167.934,397.393 112.939,330.115C101.152,315.695 90.117,293.261 95.269,296.987C100.394,300.693 128.539,321.047 169.54,324.088C197.015,326.125 201.289,320.94 205.517,332.493C208.925,341.805 212.286,361.009 214.729,354.641C224.004,330.469 221.159,327.265 229.418,325.169C270.705,314.689 286.686,284.998 290.175,269.414C290.292,268.893 293.13,256.216 293.346,263.544C294.131,290.216 292.039,302.13 291.869,303.551Z" style="fill:rgb(255,168,0);"/>
        <path d="M201.092,194.4C212.707,139.225 211.224,98.793 212.919,97.994C215.621,96.721 214.225,99.205 214.933,107.46C221.218,180.812 223.88,237.817 274.591,245.026C274.925,245.073 287.513,246.863 277.427,248.145C216.118,255.942 216.566,314.509 214.147,316.007C213.258,316.558 212.366,316.106 210.1,303.573C204.775,274.118 178.333,251.762 154.48,248.633C153.936,248.561 140.194,246.759 148.46,245.367C180.106,240.038 191.236,227.737 201.092,194.4Z" style="fill:rgb(255,168,0);"/>
        <path d="M138.798,205.53C136.38,226.267 137.518,235.361 118.625,243.781C106.256,249.293 132.087,250.13 135.525,264.493C145.128,304.606 170.313,309.315 160.5,308.526C159.822,308.472 144.574,300.085 136.834,294.038C93.097,259.863 86.293,216.579 86.833,214.579C96.679,178.13 123.816,138.87 170.568,122.689C174.546,121.312 187.029,116.813 178.786,122.792C165.79,132.217 148.252,158.94 142.245,185.447C139.984,195.423 140.203,195.374 138.798,205.53Z" style="fill:rgb(255,168,0);"/>
        <path d="M333.874,276.445C334.348,280.75 341.494,293.542 317.058,326.177C307.133,339.431 290.377,353.674 289.513,353.336C286.719,352.242 291.922,351.365 296.985,316.58C301.584,284.976 295.709,258.234 296.745,256.635C300.478,250.876 319.17,248.178 308.393,243.783C283.949,233.815 295.902,222.377 278.119,198.794C269.125,186.867 262.515,182.994 260.853,182.021C248.807,174.963 280.901,183.73 298.154,200.886C324.061,226.646 330.131,254.955 333.874,276.445Z" style="fill:rgb(255,168,0);"/>
        <path d="M340.73,271.303C338.779,263.052 333.096,216.185 290.838,188.014C263.479,169.776 243.933,175.152 240.671,169.396C240.505,169.103 238.388,165.369 240.383,165.193C277.718,161.908 325.893,177.407 332.021,191.729C343.395,218.31 339.372,232.147 359.587,243.344C363.479,245.499 365.385,247.251 361.339,249.12C344.749,256.783 342.191,271.128 342.11,271.263C342.054,271.358 342.11,271.263 340.73,271.303Z" style="fill:rgb(255,168,0);"/>
        <path d="M230.155,132.563C229.884,131.36 226.967,118.431 227.358,117.4C227.952,115.832 283.854,119.66 318.586,169.44C318.759,169.688 325.749,177.996 319.59,174.294C287.654,155.095 241.651,161.518 238.374,160.905C235.887,160.44 230.631,134.876 230.155,132.563Z" style="fill:rgb(255,168,0);"/>
        <path d="M85.106,270.606C74.85,246.111 63.116,252.103 63.28,246.487C63.332,244.709 64.109,245.174 68.613,242.692C76.299,238.454 81.183,229.527 82.552,230.409C83.254,230.861 82.995,230.943 84.622,235.459C96.826,269.329 133.307,308.327 174.54,317.409C182.166,319.089 173.689,319.567 173.5,319.544C140.466,315.528 116.797,302.351 112.303,299.849C84.587,284.418 87.211,280.841 85.106,270.606Z" style="fill:rgb(255,168,0);"/>
        <path d="M196.957,131.582C188.966,172.073 184.965,171.818 179.651,173.907C174.225,176.04 156.438,186.185 146.962,201.883C146.813,202.129 142.394,209.45 143.755,203.514C149.664,177.744 158.451,142.935 197.588,117.659C202.016,114.8 197.61,128.807 196.957,131.582Z" style="fill:rgb(255,168,0);"/>
    </g>
</svg>
